<?xml version="1.0" encoding="utf-8"?>
<!-- Generator: Adobe Illustrator 25.2.0, SVG Export Plug-In . SVG Version: 6.00 Build 0)  -->
<svg version="1.1" id="Layer_1" xmlns="http://www.w3.org/2000/svg" xmlns:xlink="http://www.w3.org/1999/xlink" x="0px" y="0px"
	 width="496px" height="496px" viewBox="0 0 496 496" style="enable-background:new 0 0 496 496;" xml:space="preserve">
<style type="text/css">
	.st0{fill:#1F345E;}
	.st1{fill:#4E90CC;}
	.st2{fill:#D9612C;}
</style>
<g>
	<g>
		<g>
			<g>
				<g>
					<path class="st0" d="M285.3,449.7c-3.6,0-6.4-2.8-6.4-6.4v-48.7c0-3.6,2.9-6.4,6.4-6.4H332c20.4,0,37-16.5,37-37v-5.3l-5.9-4.5
						c-0.6-0.5-1.3-1.2-1.7-1.9c-4.2-7.6-1.8-17,5.6-21.7l12.3-7.6v-14.3c0-6.7,5.4-12,12-12h4.7c2,0,3.1-1.4,3.3-2
						c0.4-0.6,1-2.2-0.1-4L372.5,237c-0.9-1.4-1.3-3.1-1-4.6c1.3-7.7,1.9-14.7,1.9-21.5c0-52.9-33.2-101.2-82.6-120
						c-3.3-1.3-5-5-3.7-8.3c1.3-3.3,5-5,8.3-3.7c54.5,20.8,91,73.8,91,132.1c0,6.7-0.5,13.6-1.7,21.1l25.5,38.7
						c3.3,5.1,3.7,11.7,0.8,17.2c-2.9,5.4-8.6,8.8-14.7,8.8h-4v17.2c0,2.3-1.2,4.4-3.1,5.5l-15.4,9.4c-1.2,0.8-1.8,2-1.4,3.3l7,5.4
						c1.5,1.2,2.6,3.1,2.6,5.1v8.5c0,27.5-22.4,49.8-49.8,49.8h-40.2v42.3C291.8,446.8,288.9,449.7,285.3,449.7"/>
				</g>
				<g>
					<path class="st0" d="M249.2,449.7h-74.7c-3.6,0-6.4-2.8-6.4-6.4s2.9-6.4,6.4-6.4h68.3v-62.9c0-3.6,2.8-6.4,6.4-6.4h46.6
						c20.4,0,37-16.7,37-37v-5.3l-5.9-4.5c-0.6-0.5-1.3-1.2-1.7-1.9c-4.2-7.6-1.8-17,5.6-21.7l12.3-7.6v-14.3c0-6.7,5.4-12,12-12
						h4.7c2,0,3.1-1.4,3.3-2c0.4-0.6,1-2.2-0.1-4l-26.9-40.9c-0.9-1.4-1.3-3.1-1-4.6c1.3-7.7,1.9-14.7,1.9-21.5
						c0-35.5-14.9-69.7-40.7-93.9c-26.3-24.6-60.6-36.6-96.6-34.2c-3.6,0.3-6.7-2.4-6.9-6c-0.3-3.6,2.4-6.7,6-6.9
						c39.6-2.7,77.4,10.6,106.3,37.7c28.6,26.6,44.8,64.3,44.8,103.3c0,6.7-0.5,13.6-1.7,21.1l25.5,38.7c3.3,5.1,3.7,11.7,0.8,17.2
						c-2.9,5.4-8.6,8.8-14.7,8.8h-4v17.2c0,2.3-1.2,4.4-3.1,5.5l-15.4,9.4c-1.2,0.8-1.8,2-1.4,3.3l7,5.4c1.5,1.3,2.6,3.1,2.6,5.1
						v8.5c0,27.5-22.4,49.8-49.8,49.8h-40.2V443C255.7,446.8,252.8,449.7,249.2,449.7"/>
				</g>
				<g>
					<path class="st0" d="M303,449.7h-53.8c-3.6,0-6.4-2.8-6.4-6.4s2.8-6.4,6.4-6.4H303c3.6,0,6.4,2.9,6.4,6.4
						C309.4,446.8,306.5,449.7,303,449.7"/>
				</g>
				<g>
					<path class="st0" d="M285.3,401h-36.1c-3.6,0-6.4-2.8-6.4-6.4s2.8-6.4,6.4-6.4h36c3.6,0,6.4,2.9,6.4,6.4
						C291.8,398,288.9,401,285.3,401"/>
				</g>
				<g>
					<path class="st0" d="M249.2,380.3h-13.1c-3.6,0-6.4-2.8-6.4-6.4s2.9-6.4,6.4-6.4h13.1c3.6,0,6.4,2.9,6.4,6.4
						C255.7,377.4,252.8,380.3,249.2,380.3"/>
				</g>
				<g>
					<path class="st1" d="M205.3,311H175c-3.6,0-6.4-2.8-6.4-6.4c0-3.6,2.8-6.4,6.4-6.4h29.2V279c0-2.9,2-5.5,4.9-6.3
						c7-1.8,13.8-4.6,20.2-8.3c2.6-1.5,5.8-1.2,7.8,1l13.6,13.6l19.9-19.9L257,245.6c-2-2-2.4-5.4-1-7.8c3.7-6.3,6.5-13.1,8.3-20.2
						c0.8-2.8,3.3-4.9,6.3-4.9h19.2v-28.2h-19.2c-2.9,0-5.5-2-6.3-4.9c-1.8-7.2-4.6-14-8.3-20.2c-1.5-2.6-1.2-5.8,1-7.8l13.6-13.6
						l-19.9-20l-13.6,13.6c-2,2-5.3,2.4-7.8,1c-6.3-3.7-13.1-6.5-20.2-8.3c-2.8-0.8-4.9-3.3-4.9-6.3V98.7H175
						c-3.6,0-6.4-2.8-6.4-6.4s2.8-6.4,6.4-6.4h30.2c6.5,0,11.9,5.4,11.9,11.9v15.4c5,1.5,9.7,3.6,14.3,5.9l10.9-10.9
						c4.5-4.5,12.3-4.5,16.8,0l21.4,21.4c2.2,2.2,3.5,5.3,3.5,8.3c0,3.2-1.3,6.1-3.5,8.3l-10.9,10.9c2.4,4.6,4.4,9.4,5.9,14.3H291
						c6.5,0,11.9,5.4,11.9,11.9v30.2c0,6.5-5.4,11.9-11.9,11.9h-15.4c-1.5,5-3.6,9.7-5.9,14.3l10.9,10.9c2.3,2.2,3.5,5.3,3.5,8.5
						c0,3.2-1.3,6.1-3.5,8.3L259.2,289c-4.6,4.6-12.2,4.6-16.8,0l-10.9-10.9c-4.6,2.4-9.4,4.4-14.3,5.9v15.4
						C217.1,305.7,211.8,311,205.3,311"/>
				</g>
				<g>
					<path class="st2" d="M205.7,235.4c-3.5,0-6.9-1.2-10-3.3l-3.1-2.3c-1.4-1-3.3-1-4.7,0l-3.1,2.3c-6,4.4-13.8,4.4-20,0
						c-6-4.4-8.5-11.8-6.1-19l1.2-3.6c0.5-1.7,0-3.5-1.5-4.6l-3.1-2.3c-6-4.4-8.5-11.8-6.1-19c2.3-7.2,8.6-11.7,16.1-11.7h3.8
						c1.8,0,3.3-1.2,3.8-2.8l1.2-3.6c2.3-7.2,8.6-11.7,16.1-11.7c7.4,0,13.8,4.6,16.1,11.7l1.2,3.6c0.5,1.7,2,2.8,3.8,2.8h3.8
						c7.4,0,13.8,4.6,16.1,11.7c2.3,7.2-0.1,14.6-6.1,19l-3.1,2.3c-1.4,1-2,2.8-1.5,4.5l1.2,3.6c2.3,7.2-0.1,14.6-6.1,19
						C212.6,234.3,209.1,235.4,205.7,235.4 M165.2,185c-2.7,0-3.6,1.9-3.8,2.8c-0.3,0.9-0.6,2.9,1.5,4.6l3.1,2.3
						c5.9,4.4,8.5,11.9,6.1,19l-1.2,3.6c-0.8,2.6,0.8,4,1.5,4.6c0.8,0.5,2.7,1.5,4.7,0l3.1-2.3c6-4.4,14-4.4,20,0l3.1,2.3
						c2.2,1.5,4.1,0.5,4.7,0c0.8-0.5,2.3-2,1.5-4.6l-1.2-3.6c-2.3-7,0.3-14.6,6.1-19l3.1-2.3c2.2-1.5,1.8-3.7,1.5-4.6
						c-0.3-0.9-1.2-2.8-3.8-2.8h-3.8c-7.4,0-13.8-4.7-16.1-11.7l-1.2-3.6c-0.8-2.6-2.9-2.8-3.8-2.8s-3.1,0.3-3.8,2.8l-1.2,3.6
						c-2.3,7-8.7,11.7-16.1,11.7H165.2z"/>
				</g>
				<g>
					<path class="st2" d="M190.2,269c-38.9,0-70.6-31.6-70.6-70.6s31.6-70.6,70.6-70.6s70.6,31.6,70.6,70.6
						C260.9,237.4,229.1,269,190.2,269 M190.2,140.6c-31.9,0-57.8,25.9-57.8,57.8s25.9,57.8,57.8,57.8s57.8-25.9,57.8-57.8
						S222.1,140.6,190.2,140.6"/>
				</g>
			</g>
		</g>
	</g>
</g>
</svg>
